<svg xmlns="http://www.w3.org/2000/svg" width="64" height="64" viewBox="0 0 64 64">
  <defs>
    <linearGradient id="bg" x1="8%" y1="4%" x2="92%" y2="94%">
      <stop offset="0%" stop-color="#060607" />
      <stop offset="60%" stop-color="#0D0D10" />
      <stop offset="100%" stop-color="#1B1B1F" />
    </linearGradient>
    <radialGradient id="glow" cx="20%" cy="12%" r="70%">
      <stop offset="0%" stop-color="#52525A" stop-opacity="0.55" />
      <stop offset="55%" stop-color="#2A2A30" stop-opacity="0.35" />
      <stop offset="100%" stop-color="#111114" stop-opacity="0" />
    </radialGradient>
    <linearGradient id="accent" x1="0%" y1="0%" x2="100%" y2="100%">
      <stop offset="0%" stop-color="#3DD5FF" />
      <stop offset="45%" stop-color="#13A7FF" />
      <stop offset="100%" stop-color="#30D1B6" />
    </linearGradient>
    <filter id="softBlur" x="-20%" y="-20%" width="140%" height="140%" color-interpolation-filters="sRGB">
      <feGaussianBlur stdDeviation="1.2" />
    </filter>
    <filter id="shadow" x="-40%" y="-40%" width="180%" height="200%" color-interpolation-filters="sRGB">
      <feDropShadow dx="0" dy="4" stdDeviation="3" flood-color="#000" flood-opacity="0.45" />
    </filter>
  </defs>
  <rect width="64" height="64" rx="14" fill="url(#bg)" />
  <rect width="64" height="64" rx="14" fill="url(#glow)" />
  <g transform="rotate(-8 32 32)">
    <rect x="16" y="13" width="32" height="38" rx="10" fill="#101014" filter="url(#shadow)" />
    <rect x="18" y="15" width="28" height="34" rx="8" fill="#16161C" stroke="#2C2C35" stroke-width="1.5" />
  </g>
  <g transform="rotate(11 34 32)">
    <rect x="20.5" y="16" width="30" height="36" rx="9" fill="rgba(0,0,0,0.35)" filter="url(#softBlur)" />
    <rect x="20" y="15" width="30" height="36" rx="9" fill="url(#accent)" filter="url(#shadow)" />
    <rect x="21.4" y="16.6" width="27.2" height="32.8" rx="7.5" fill="rgba(255,255,255,0.15)" style="mix-blend-mode:soft-light" />
  </g>
  <path d="M22 34 C27 32 33 30 40 27" stroke="#E3F6FF" stroke-width="2.8" stroke-linecap="round" opacity="0.7" filter="url(#softBlur)" />
  <path d="M24 32 C29 30 34 28 40 25" stroke="#ffffff" stroke-width="1.6" stroke-linecap="round" opacity="0.9" />
</svg>
